<?xml version="1.0" standalone="no"?>
<!DOCTYPE svg PUBLIC "-//W3C//DTD SVG 20010904//EN"
 "http://www.w3.org/TR/2001/REC-SVG-20010904/DTD/svg10.dtd">
<svg version="1.0" xmlns="http://www.w3.org/2000/svg"
 width="144.000000pt" height="90.000000pt" viewBox="0 0 144.000000 90.000000"
 preserveAspectRatio="xMidYMid meet">

<g transform="translate(0.000000,90.000000) scale(0.100000,-0.100000)"
fill="#000000" stroke="none">
<path d="M21 54 c-43 -54 -43 -54 241 -54 l261 0 -23 25 c-24 25 -64 33 -75
15 -11 -18 -71 -11 -90 10 l-18 20 -22 -20 c-30 -28 -73 -26 -97 5 -17 22 -27
25 -88 25 -62 0 -70 -2 -89 -26z m154 -14 c4 -6 -20 -10 -65 -10 -45 0 -69 4
-65 10 8 13 122 13 130 0z"/>
<path d="M1112 58 c-6 -6 -12 -18 -12 -25 0 -21 -168 -18 -192 4 -17 15 -19
15 -36 0 -21 -20 -121 -24 -139 -6 -8 8 -13 8 -17 0 -4 -6 -39 -11 -81 -11
-41 0 -77 -5 -80 -10 -4 -7 145 -10 439 -10 291 0 446 3 446 10 0 6 -34 10
-83 10 -76 0 -83 2 -92 23 -9 19 -19 22 -75 25 -42 2 -70 -2 -78 -10z m136
-25 c3 -10 -14 -13 -62 -13 -61 0 -77 6 -59 24 12 12 116 2 121 -11z"/>
</g>
</svg>
